<svg xmlns="http://www.w3.org/2000/svg" xmlns:xlink="http://www.w3.org/1999/xlink" width="73px" height="86px">
	<path fill-rule="evenodd" fill="rgb(174, 184, 196)" d="M71.630,65.457 C70.987,66.680 69.354,67.1000 67.999,67.1000 L5.999,67.1000 C4.645,67.1000 3.005,66.679 2.365,65.457 C-1.174,58.723 2.985,54.987 5.220,52.980 C6.124,52.167 6.978,51.398 7.421,50.577 C7.459,50.517 7.482,50.472 7.509,50.427 C9.105,47.812 9.687,41.471 10.033,37.682 C10.083,37.120 10.131,36.584 10.182,36.078 C10.188,36.035 10.192,35.989 10.198,35.941 C10.981,30.322 12.918,22.252 17.713,15.601 C21.066,10.942 25.249,7.824 30.153,6.321 C30.509,2.772 33.441,-0.005 36.998,-0.005 C40.550,-0.005 43.487,2.771 43.842,6.320 C48.743,7.825 52.925,10.943 56.282,15.600 C61.077,22.252 63.015,30.322 63.793,35.920 C63.800,35.989 63.807,36.035 63.810,36.082 C63.861,36.583 63.912,37.120 63.963,37.682 C64.312,41.470 64.887,47.810 66.476,50.411 C66.516,50.481 66.550,50.535 66.577,50.589 C67.017,51.400 67.871,52.168 68.775,52.980 C71.011,54.988 75.166,58.724 71.630,65.457 ZM29.630,75.014 L44.106,75.014 C44.922,75.014 45.381,75.446 45.580,75.703 C46.151,76.429 45.996,77.293 45.921,77.708 C45.914,77.743 45.908,77.775 45.904,77.804 C45.290,82.481 41.456,86.009 36.988,86.009 C32.603,86.009 28.874,82.694 28.121,78.126 L28.111,78.067 C27.997,77.385 27.828,76.354 28.415,75.612 C28.715,75.232 29.157,75.014 29.630,75.014 Z" />
</svg>
