<svg xmlns="http://www.w3.org/2000/svg" xmlns:xlink="http://www.w3.org/1999/xlink" width="17px" height="80px">
	<path fill-rule="evenodd" fill="rgb(174, 184, 196)" d="M16.999,8.189 C16.999,12.711 13.194,16.378 8.500,16.378 C3.805,16.378 -0.000,12.711 -0.000,8.189 C-0.000,3.666 3.805,-0.000 8.500,-0.000 C13.194,-0.000 16.999,3.666 16.999,8.189 ZM16.999,39.685 C16.999,44.208 13.194,47.874 8.500,47.874 C3.805,47.874 -0.000,44.208 -0.000,39.685 C-0.000,35.162 3.805,31.496 8.500,31.496 C13.194,31.496 16.999,35.162 16.999,39.685 ZM16.999,71.811 C16.999,76.334 13.194,79.1000 8.500,79.1000 C3.805,79.1000 -0.000,76.334 -0.000,71.811 C-0.000,67.288 3.805,63.622 8.500,63.622 C13.194,63.622 16.999,67.288 16.999,71.811 Z" />
</svg>
