<svg xmlns="http://www.w3.org/2000/svg" xmlns:xlink="http://www.w3.org/1999/xlink" width="88px" height="88px">
	<path fill-rule="evenodd" fill="rgb(174, 184, 196)" d="M43.999,87.987 C19.599,87.987 -0.001,68.386 -0.001,43.986 C-0.001,19.585 19.599,-0.015 43.999,-0.015 C68.399,-0.015 87.998,19.585 87.998,43.986 C87.998,68.386 68.399,87.987 43.999,87.987 ZM65.414,20.786 C65.236,20.786 65.057,20.964 64.879,20.964 L32.756,31.672 C32.220,31.850 31.864,32.207 31.685,32.743 L20.977,64.866 C20.799,65.045 20.799,65.223 20.799,65.402 C20.799,66.472 21.512,67.186 22.583,67.186 C22.762,67.186 22.940,67.008 23.119,67.008 L55.242,56.300 C55.777,56.122 56.134,55.765 56.313,55.229 L67.020,23.106 C67.199,22.927 67.199,22.749 67.199,22.570 C67.199,21.499 66.485,20.786 65.414,20.786 ZM44.799,49.586 C41.264,49.586 38.399,46.721 38.399,43.186 C38.399,39.651 41.264,36.786 44.799,36.786 C48.334,36.786 51.199,39.651 51.199,43.186 C51.199,46.721 48.334,49.586 44.799,49.586 Z" />
</svg>
