<svg xmlns="http://www.w3.org/2000/svg" xmlns:xlink="http://www.w3.org/1999/xlink" width="89px" height="89px">
	<path fill-rule="evenodd" fill="rgb(174, 184, 196)" d="M89.011,44.997 C89.011,41.723 86.654,38.232 83.746,37.203 C80.837,36.174 78.018,33.653 77.200,31.665 C76.379,29.678 76.592,25.895 77.917,23.108 C79.242,20.322 78.439,16.184 76.125,13.868 C73.810,11.553 69.674,10.751 66.885,12.077 C64.099,13.403 60.319,13.620 58.337,12.799 C56.355,11.979 53.834,9.156 52.799,6.248 C51.765,3.339 48.270,0.982 44.997,0.982 C41.722,0.982 38.229,3.339 37.194,6.248 C36.160,9.156 33.638,11.978 31.656,12.799 C29.673,13.620 25.894,13.403 23.107,12.077 C20.322,10.751 16.183,11.553 13.868,13.868 C11.553,16.184 10.751,20.320 12.077,23.108 C13.403,25.896 13.613,29.676 12.790,31.662 C11.966,33.647 9.156,36.174 6.248,37.203 C3.339,38.232 0.982,41.723 0.982,44.997 C0.982,48.270 3.339,51.764 6.248,52.799 C9.156,53.833 11.969,56.359 12.794,58.341 C13.618,60.322 13.403,64.099 12.077,66.886 C10.751,69.673 11.553,73.809 13.868,76.124 C16.183,78.440 20.319,79.242 23.107,77.918 C25.896,76.591 29.673,76.378 31.656,77.200 C33.640,78.022 36.160,80.852 37.194,83.754 C38.229,86.656 41.722,89.011 44.997,89.011 C48.270,89.011 51.765,86.656 52.799,83.754 C53.834,80.852 56.351,78.024 58.333,77.198 C60.315,76.374 64.099,76.591 66.885,77.918 C69.672,79.242 73.810,78.440 76.125,76.124 C78.439,73.809 79.242,69.673 77.917,66.886 C76.592,64.098 76.376,60.320 77.194,58.338 C78.015,56.356 80.837,53.833 83.746,52.799 C86.654,51.764 89.011,48.270 89.011,44.997 ZM44.997,61.147 C36.066,61.147 28.845,53.927 28.845,45.015 C28.845,36.085 36.066,28.864 44.997,28.864 C53.909,28.864 61.129,36.085 61.129,45.015 C61.129,53.927 53.909,61.147 44.997,61.147 Z" />
</svg>
