<svg xmlns="http://www.w3.org/2000/svg" xmlns:xlink="http://www.w3.org/1999/xlink" width="88px" height="87px">
	<path fill-rule="evenodd" fill="rgb(76, 89, 104)" d="M78.000,86.1000 L9.1000,86.1000 C4.477,86.1000 0.000,82.523 0.000,76.1000 L0.000,59.000 L0.000,33.1000 L0.000,9.1000 C0.000,4.477 4.477,0.000 9.1000,0.000 L14.500,0.000 L45.1000,0.000 L59.500,0.000 C62.537,0.000 64.1000,2.463 64.1000,5.500 L64.1000,6.500 C64.1000,9.537 62.537,12.000 59.500,12.000 L56.000,12.000 L17.1000,12.000 C14.686,12.000 12.000,14.686 12.000,17.1000 C12.000,21.314 14.686,23.1000 17.1000,23.1000 L56.000,23.1000 L78.000,23.1000 C83.523,23.1000 87.1000,28.477 87.1000,33.1000 L87.1000,76.1000 C87.1000,82.523 83.523,86.1000 78.000,86.1000 ZM67.1000,46.1000 C63.581,46.1000 59.1000,50.582 59.1000,54.1000 C59.1000,59.418 63.581,62.1000 67.1000,62.1000 C72.418,62.1000 75.1000,59.418 75.1000,54.1000 C75.1000,50.582 72.418,46.1000 67.1000,46.1000 Z" />
</svg>
